<svg xmlns="http://www.w3.org/2000/svg" width="48" height="48" fill="none" viewBox="0 0 48 48">
  <g clip-path="url(#a)">
    <path fill="#1C3AA9" d="M39.619 16.715c0-.24-.006-.48-.017-.719V2.41l-3.58 3.756C33.093 2.403 28.637 0 23.644 0c-5.195 0-9.811 2.602-12.729 6.631l5.868 6.222a8.042 8.042 0 0 1 2.377-2.799c1.025-.838 2.476-1.524 4.484-1.524.243 0 .43.03.567.086 2.488.206 4.645 1.646 5.914 3.737l-4.153 4.358c5.26-.022 11.204-.034 13.647.003"/>
    <path fill="#4285F4" d="M23.55 0c-.229.001-.457.007-.685.018H9.915l3.58 3.756C9.91 6.848 7.62 11.524 7.62 16.762c0 5.451 2.48 10.294 6.32 13.355l5.93-6.156a7.912 7.912 0 0 1-2.667-2.494c-.8-1.075-1.453-2.598-1.453-4.705 0-.254.028-.45.081-.595.197-2.61 1.57-4.873 3.562-6.205l4.154 4.358c-.02-5.52-.033-11.755.003-14.319"/>
    <path fill="#ABABAB" d="M7.62 16.762c0 .24.005.48.016.718v13.586l3.58-3.756c2.93 3.763 7.387 6.166 12.379 6.166 5.196 0 9.811-2.602 12.729-6.631l-5.868-6.221a8.042 8.042 0 0 1-2.377 2.798c-1.024.838-2.476 1.524-4.484 1.524-.242 0-.43-.03-.567-.086-2.488-.206-4.644-1.646-5.914-3.737l4.154-4.358c-5.262.022-11.205.035-13.648-.002"/>
    <path fill="#A6A6A6" d="M10.315 39.968a2.3 2.3 0 0 0-1.047.232 2.19 2.19 0 0 0-.785.65 3.1 3.1 0 0 0-.488 1.023 5.01 5.01 0 0 0-.166 1.336v1.42c0 .497.056.944.166 1.341.114.398.275.738.483 1.02.208.28.46.497.755.648.295.152.627.228.996.228.38 0 .712-.059.997-.175.288-.116.53-.283.724-.501.195-.222.344-.49.448-.803a3.9 3.9 0 0 0 .191-1.066h-.93a4.525 4.525 0 0 1-.121.787 1.458 1.458 0 0 1-.252.533.96.96 0 0 1-.423.306 1.84 1.84 0 0 1-.634.095 1.22 1.22 0 0 1-.684-.185 1.43 1.43 0 0 1-.458-.517 2.699 2.699 0 0 1-.251-.766 5.578 5.578 0 0 1-.076-.945V43.2c0-.363.03-.692.09-.988.064-.295.16-.547.287-.755a1.37 1.37 0 0 1 .484-.48 1.33 1.33 0 0 1 .694-.174c.225 0 .418.035.579.105a.942.942 0 0 1 .402.317c.108.14.19.32.247.538.057.219.095.479.116.782h.93a3.984 3.984 0 0 0-.186-1.104 2.336 2.336 0 0 0-.448-.807 1.845 1.845 0 0 0-.699-.497 2.443 2.443 0 0 0-.941-.169Zm22.725 0a2.3 2.3 0 0 0-1.047.232 2.19 2.19 0 0 0-.785.65 3.102 3.102 0 0 0-.488 1.023 5.01 5.01 0 0 0-.166 1.336v1.42c0 .497.055.944.166 1.341.114.398.275.738.483 1.02.208.28.46.497.755.648.295.152.627.228.996.228.38 0 .711-.059.997-.175.288-.116.53-.283.724-.501.195-.222.344-.49.448-.803.108-.313.171-.669.191-1.066h-.93a4.525 4.525 0 0 1-.121.787 1.459 1.459 0 0 1-.252.533.96.96 0 0 1-.423.306 1.84 1.84 0 0 1-.634.095 1.22 1.22 0 0 1-.684-.185 1.43 1.43 0 0 1-.458-.517 2.704 2.704 0 0 1-.252-.766 5.573 5.573 0 0 1-.075-.945V43.2c0-.363.03-.692.09-.988a2.4 2.4 0 0 1 .287-.755 1.37 1.37 0 0 1 .483-.48 1.33 1.33 0 0 1 .695-.174c.225 0 .418.035.579.105.16.067.295.173.402.317.107.14.19.32.247.538.057.219.095.479.115.782h.931a3.98 3.98 0 0 0-.186-1.104 2.336 2.336 0 0 0-.448-.807 1.845 1.845 0 0 0-.7-.497 2.443 2.443 0 0 0-.94-.169Zm-17.42.105-2.36 7.687h.945l.569-2.006h2.475l.58 2.006h.945l-2.365-7.687h-.79Zm4.15 0v7.687h.921v-3.01h1.414c.352 0 .664-.05.936-.153a1.813 1.813 0 0 0 1.107-1.183c.098-.291.146-.622.146-.992 0-.341-.049-.654-.146-.94a2.065 2.065 0 0 0-.417-.744 1.86 1.86 0 0 0-.69-.49 2.366 2.366 0 0 0-.936-.175H19.77Zm5.229 0v.834h1.922v6.853h.92v-6.853h1.928v-.834h-4.77Zm11.558 0v7.687h.92v-3.553h2.95v3.553h.926v-7.687h-.926v3.305h-2.949v-3.305h-.92Zm8.288 0-2.36 7.687h.946L44 45.754h2.475l.58 2.006H48l-2.365-7.687h-.79Zm-24.154.834h1.414a1.2 1.2 0 0 1 .574.127 1.1 1.1 0 0 1 .392.338c.107.146.184.313.227.49.05.184.075.374.075.571 0 .218-.025.419-.075.602-.043.172-.12.332-.227.47-.1.13-.231.232-.392.306a1.342 1.342 0 0 1-.574.11H20.69v-3.014Zm-4.68.518 1.002 3.495h-1.998l.996-3.495Zm29.226 0 1.002 3.495H44.24l.996-3.495Zm-43.345.517a.982.982 0 0 0-.599.185c-.164.123-.302.29-.412.501l-.015-.58H0v5.712h.89v-4.087c.085-.242.204-.434.358-.575a.865.865 0 0 1 .599-.211c.077 0 .146.003.206.01.06.004.126.013.196.027l-.005-.908a.299.299 0 0 0-.065-.021.56.56 0 0 0-.09-.027.968.968 0 0 0-.106-.016.446.446 0 0 0-.09-.01Zm2.994 0c-.258 0-.508.048-.75.143a1.639 1.639 0 0 0-.644.47 2.453 2.453 0 0 0-.448.844c-.114.345-.17.77-.17 1.273v.644c0 .436.048.814.145 1.135.097.32.237.586.418.797.185.208.414.367.67.465.26.102.554.153.88.153.234 0 .444-.025.629-.074.188-.05.354-.113.498-.19.135-.074.26-.167.372-.275.1-.096.189-.202.267-.316l-.463-.592a2.491 2.491 0 0 1-.236.264 1.654 1.654 0 0 1-.277.206 1.408 1.408 0 0 1-.332.132 1.61 1.61 0 0 1-.408.047c-.412 0-.73-.139-.951-.416-.218-.279-.327-.724-.327-1.336v-.133h3.04v-.543a5.67 5.67 0 0 0-.106-1.156 2.371 2.371 0 0 0-.337-.845 1.48 1.48 0 0 0-.594-.517c-.242-.12-.534-.18-.876-.18Zm0 .803c.195 0 .356.036.483.11.126.073.23.18.302.312.077.133.133.294.166.48.037.183.06.386.07.607v.127H3.765c.013-.32.05-.586.11-.797.061-.211.14-.379.237-.502a.808.808 0 0 1 .347-.264c.138-.05.282-.075.428-.074Z"/>
  </g>
  <defs>
    <clipPath id="a">
      <path fill="#fff" d="M0 0h48v48H0z"/>
    </clipPath>
  </defs>
</svg>
