<svg width="114" height="41" viewBox="0 0 114 41" fill="none" xmlns="http://www.w3.org/2000/svg">
<rect width="114" height="41" fill="#68DB4B"/>
<path d="M34.5371 20.2979V24.2422C34.3822 24.429 34.1429 24.6318 33.8193 24.8506C33.4958 25.0648 33.0788 25.2493 32.5684 25.4043C32.0579 25.5592 31.4404 25.6367 30.7158 25.6367C30.0732 25.6367 29.4876 25.5319 28.959 25.3223C28.4303 25.1081 27.9746 24.7959 27.5918 24.3857C27.2135 23.9756 26.9219 23.4743 26.7168 22.8818C26.5117 22.2848 26.4092 21.6035 26.4092 20.8379V20.2158C26.4092 19.4502 26.5072 18.7689 26.7031 18.1719C26.9036 17.5749 27.1885 17.0713 27.5576 16.6611C27.9268 16.251 28.3665 15.9388 28.877 15.7246C29.3874 15.5104 29.9548 15.4033 30.5791 15.4033C31.445 15.4033 32.1559 15.5446 32.7119 15.8271C33.2679 16.1051 33.6917 16.4925 33.9834 16.9893C34.2796 17.4814 34.4619 18.0465 34.5303 18.6846H32.541C32.4909 18.3473 32.3952 18.0534 32.2539 17.8027C32.1126 17.5521 31.9098 17.3561 31.6455 17.2148C31.3857 17.0736 31.0485 17.0029 30.6338 17.0029C30.292 17.0029 29.9867 17.0736 29.7178 17.2148C29.4535 17.3516 29.2301 17.5544 29.0479 17.8232C28.8656 18.0921 28.7266 18.4248 28.6309 18.8213C28.5352 19.2178 28.4873 19.6781 28.4873 20.2021V20.8379C28.4873 21.3574 28.5374 21.8177 28.6377 22.2188C28.738 22.6152 28.8861 22.9502 29.082 23.2236C29.2826 23.4925 29.5286 23.6953 29.8203 23.832C30.112 23.9688 30.4515 24.0371 30.8389 24.0371C31.1624 24.0371 31.4313 24.0098 31.6455 23.9551C31.8643 23.9004 32.0397 23.8343 32.1719 23.7568C32.3086 23.6748 32.4134 23.5973 32.4863 23.5244V21.7607H30.6133V20.2979H34.5371ZM38.9914 15.5469H42.7033C43.4644 15.5469 44.1184 15.6608 44.6652 15.8887C45.2167 16.1165 45.6405 16.4538 45.9367 16.9004C46.2329 17.347 46.3811 17.8962 46.3811 18.5479C46.3811 19.0811 46.2899 19.5391 46.1076 19.9219C45.9299 20.3001 45.677 20.6169 45.3488 20.8721C45.0253 21.1227 44.6447 21.3232 44.2072 21.4736L43.5578 21.8154H40.3313L40.3176 20.2158H42.717C43.077 20.2158 43.3755 20.152 43.6125 20.0244C43.8495 19.8968 44.0272 19.7191 44.1457 19.4912C44.2688 19.2633 44.3303 18.999 44.3303 18.6982C44.3303 18.3792 44.271 18.1035 44.1525 17.8711C44.034 17.6387 43.854 17.4609 43.6125 17.3379C43.371 17.2148 43.0679 17.1533 42.7033 17.1533H41.0422V25.5H38.9914V15.5469ZM44.5559 25.5L42.2863 21.0635L44.4533 21.0498L46.7502 25.4043V25.5H44.5559ZM54.807 17.249L52.1 25.5H49.9193L53.6176 15.5469H55.0053L54.807 17.249ZM57.0561 25.5L54.3422 17.249L54.1234 15.5469H55.5248L59.2436 25.5H57.0561ZM56.933 21.7949V23.4014H51.6762V21.7949H56.933ZM66.5689 15.5469V25.5H64.525V15.5469H66.5689ZM69.6314 15.5469V17.1533H61.5104V15.5469H69.6314ZM75.7811 15.5469V25.5H73.7371V15.5469H75.7811ZM85.6836 22.8955C85.6836 22.7178 85.6562 22.5583 85.6016 22.417C85.5514 22.2712 85.4557 22.139 85.3145 22.0205C85.1732 21.8975 84.9749 21.7767 84.7197 21.6582C84.4645 21.5397 84.1341 21.4167 83.7285 21.2891C83.2773 21.1432 82.849 20.9792 82.4434 20.7969C82.0423 20.6146 81.6868 20.4027 81.377 20.1611C81.0716 19.915 80.8301 19.6302 80.6523 19.3066C80.4792 18.9831 80.3926 18.6071 80.3926 18.1787C80.3926 17.764 80.4837 17.388 80.666 17.0508C80.8483 16.709 81.1035 16.4173 81.4316 16.1758C81.7598 15.9297 82.1471 15.7406 82.5938 15.6084C83.0449 15.4762 83.5394 15.4102 84.0771 15.4102C84.8109 15.4102 85.4512 15.5423 85.998 15.8066C86.5449 16.071 86.9688 16.4333 87.2695 16.8936C87.5749 17.3538 87.7275 17.8802 87.7275 18.4727H85.6904C85.6904 18.181 85.6289 17.9258 85.5059 17.707C85.3874 17.4837 85.2051 17.3083 84.959 17.1807C84.7174 17.0531 84.4121 16.9893 84.043 16.9893C83.6875 16.9893 83.3913 17.0439 83.1543 17.1533C82.9173 17.2581 82.7396 17.4017 82.6211 17.584C82.5026 17.7617 82.4434 17.9622 82.4434 18.1855C82.4434 18.3542 82.4844 18.5068 82.5664 18.6436C82.653 18.7803 82.7806 18.9079 82.9492 19.0264C83.1178 19.1449 83.3252 19.2565 83.5713 19.3613C83.8174 19.4661 84.1022 19.5687 84.4258 19.6689C84.9681 19.833 85.4443 20.0176 85.8545 20.2227C86.2692 20.4277 86.6156 20.6579 86.8936 20.9131C87.1715 21.1683 87.3812 21.4577 87.5225 21.7812C87.6637 22.1048 87.7344 22.4717 87.7344 22.8818C87.7344 23.3148 87.6501 23.7021 87.4814 24.0439C87.3128 24.3857 87.069 24.6751 86.75 24.9121C86.431 25.1491 86.0505 25.3291 85.6084 25.4521C85.1663 25.5752 84.6719 25.6367 84.125 25.6367C83.6328 25.6367 83.1475 25.5729 82.6689 25.4453C82.1904 25.3132 81.7552 25.1149 81.3633 24.8506C80.9759 24.5863 80.666 24.249 80.4336 23.8389C80.2012 23.4287 80.085 22.9434 80.085 22.3828H82.1426C82.1426 22.6927 82.1904 22.9548 82.2861 23.1689C82.3818 23.3831 82.5163 23.5563 82.6895 23.6885C82.8672 23.8206 83.0768 23.9163 83.3184 23.9756C83.5645 24.0348 83.8333 24.0645 84.125 24.0645C84.4805 24.0645 84.7721 24.0143 85 23.9141C85.2324 23.8138 85.4033 23.6748 85.5127 23.4971C85.6266 23.3193 85.6836 23.1188 85.6836 22.8955Z" fill="#201C1C"/>
</svg>
