<svg xmlns="http://www.w3.org/2000/svg" width="35" height="35" fill="none" viewBox="0 0 35 35">
  <g clip-path="url(#a)">
    <path fill="#5F3DC4" d="M15.925 4.183a1.823 1.823 0 0 1 3.15 0l4.076 6.997 7.916 1.715a1.822 1.822 0 0 1 .973 2.995l-5.396 6.039.816 8.057a1.822 1.822 0 0 1-2.549 1.852L17.5 28.572l-7.411 3.266a1.823 1.823 0 0 1-2.55-1.852l.817-8.057-5.396-6.037a1.823 1.823 0 0 1 .973-2.997l7.916-1.715 4.076-6.997Z"/>
  </g>
  <defs>
    <clipPath id="a">
      <path fill="#fff" d="M0 0h35v35H0z"/>
    </clipPath>
  </defs>
</svg>
