<svg xmlns="http://www.w3.org/2000/svg" width="235" height="65" fill="none" viewBox="0 0 235 65">
  <g filter="url(#a)">
    <path fill="url(#b)" d="M19 8v12l2-4 4.5-2.5 7.5-3L19 8Zm18 0v12h12V8H37ZM19 8 3.5 19 19 20V8Zm18 12v18h12V20H37ZM1 44l18-3-3-11.5 3-9.5-15.5-1L1 44Zm18-3v15h18v-7l-9.5-2-8.5-6Zm18-3v18h12V38H37Z"/>
  </g>
  <g filter="url(#c)">
    <path fill="url(#d)" d="M66.695 24.781V39h-2.45V24.781h2.45Zm5.801 6.221v1.943H66.07v-1.943h6.426Zm.81-6.22v1.952H66.07v-1.953h7.237Zm3.829 5.663V39H74.78V28.434h2.246l.108 2.011Zm3.232-2.08-.02 2.188a4.639 4.639 0 0 0-.468-.059 6.13 6.13 0 0 0-.488-.02c-.404 0-.759.06-1.065.176a2.006 2.006 0 0 0-.771.489 2.149 2.149 0 0 0-.47.761c-.11.3-.175.635-.194 1.006l-.538.04c0-.665.066-1.28.196-1.846a5.04 5.04 0 0 1 .586-1.495c.267-.43.599-.765.996-1.005.403-.241.869-.362 1.396-.362.144 0 .297.013.46.04.169.025.296.055.38.087Zm5.938 10.83c-.782 0-1.488-.127-2.12-.38a4.68 4.68 0 0 1-1.601-1.084 4.807 4.807 0 0 1-1.006-1.631 5.712 5.712 0 0 1-.351-2.022v-.39c0-.827.12-1.576.36-2.247a5.114 5.114 0 0 1 1.007-1.718 4.32 4.32 0 0 1 1.523-1.104 4.737 4.737 0 0 1 1.904-.38c.756 0 1.416.126 1.983.38a3.726 3.726 0 0 1 1.406 1.074c.378.456.658 1 .84 1.631a7.27 7.27 0 0 1 .283 2.09v1.006H82.37v-1.69h5.84v-.185a3.305 3.305 0 0 0-.254-1.192c-.15-.37-.38-.67-.693-.898-.313-.228-.73-.342-1.25-.342-.39 0-.74.085-1.045.254-.3.163-.55.4-.752.713-.202.313-.358.69-.469 1.133a6.363 6.363 0 0 0-.156 1.474v.391c0 .462.062.892.185 1.29.13.39.32.732.567 1.025.247.292.547.524.898.693.352.163.752.244 1.201.244.567 0 1.071-.114 1.514-.342.443-.228.827-.55 1.152-.966l1.24 1.2a4.837 4.837 0 0 1-.888.958c-.365.3-.81.543-1.338.732-.52.189-1.126.283-1.816.283Zm10.722 0c-.78 0-1.487-.127-2.119-.38a4.68 4.68 0 0 1-1.601-1.084A4.806 4.806 0 0 1 92.3 36.1a5.71 5.71 0 0 1-.352-2.022v-.39c0-.827.12-1.576.362-2.247.24-.67.576-1.243 1.005-1.718.43-.482.938-.85 1.524-1.104a4.738 4.738 0 0 1 1.904-.38c.755 0 1.416.126 1.983.38a3.728 3.728 0 0 1 1.406 1.074c.377.456.657 1 .84 1.631.188.632.283 1.328.283 2.09v1.006h-8.164v-1.69h5.84v-.185a3.303 3.303 0 0 0-.254-1.192 2.03 2.03 0 0 0-.694-.898c-.312-.228-.729-.342-1.25-.342-.39 0-.739.085-1.044.254-.3.163-.55.4-.752.713-.202.313-.359.69-.47 1.133a6.363 6.363 0 0 0-.156 1.474v.391c0 .462.062.892.186 1.29.13.39.32.732.566 1.025a2.7 2.7 0 0 0 .899.693c.352.163.752.244 1.201.244.567 0 1.071-.114 1.514-.342a3.47 3.47 0 0 0 1.152-.966l1.24 1.2a4.854 4.854 0 0 1-.888.958c-.365.3-.81.543-1.338.732-.521.189-1.127.283-1.817.283Zm6.182-10.761h2.363v11.484c0 .723-.123 1.331-.371 1.826a2.49 2.49 0 0 1-1.094 1.133c-.481.26-1.071.39-1.767.39a4.52 4.52 0 0 1-.645-.048 4.742 4.742 0 0 1-.644-.117l.01-1.836c.136.026.283.045.439.058.15.02.293.03.43.03.28 0 .514-.05.703-.147a.947.947 0 0 0 .429-.459c.098-.208.147-.485.147-.83V28.434Zm-.205-2.774c0-.358.12-.654.361-.889.241-.24.57-.36.987-.36.423 0 .752.12.986.36.241.235.361.531.361.89 0 .35-.12.644-.361.878-.234.234-.563.352-.986.352-.417 0-.746-.118-.987-.352a1.175 1.175 0 0 1-.361-.879Zm11.465 10.85v-8.076h2.363V39h-2.227l-.136-2.49Zm.332-2.197.791-.02a7.73 7.73 0 0 1-.235 1.963 4.554 4.554 0 0 1-.722 1.553 3.382 3.382 0 0 1-1.25 1.025c-.508.24-1.117.361-1.826.361-.515 0-.987-.075-1.416-.224a2.905 2.905 0 0 1-1.114-.694c-.306-.312-.543-.72-.713-1.22-.169-.502-.254-1.1-.254-1.797v-6.826h2.354v6.845c0 .384.046.707.137.967.091.254.215.46.371.615.156.157.338.267.547.332.208.066.429.098.664.098.67 0 1.198-.13 1.582-.39.39-.268.667-.626.83-1.075.169-.449.254-.954.254-1.514Zm9.101 4.882c-.781 0-1.487-.127-2.119-.38a4.671 4.671 0 0 1-1.601-1.084 4.788 4.788 0 0 1-1.006-1.631 5.697 5.697 0 0 1-.352-2.022v-.39c0-.827.121-1.576.362-2.247.24-.67.576-1.243 1.005-1.718.43-.482.938-.85 1.524-1.104a4.738 4.738 0 0 1 1.904-.38c.755 0 1.416.126 1.983.38a3.728 3.728 0 0 1 1.406 1.074c.377.456.657 1 .84 1.631.188.632.283 1.328.283 2.09v1.006h-8.164v-1.69h5.84v-.185a3.31 3.31 0 0 0-.254-1.192 2.024 2.024 0 0 0-.694-.898c-.312-.228-.729-.342-1.25-.342-.39 0-.739.085-1.045.254-.299.163-.55.4-.752.713a3.76 3.76 0 0 0-.468 1.133 6.375 6.375 0 0 0-.156 1.474v.391c0 .462.061.892.185 1.29.13.39.319.732.566 1.025a2.7 2.7 0 0 0 .899.693c.351.163.752.244 1.201.244.566 0 1.071-.114 1.514-.342a3.47 3.47 0 0 0 1.152-.966l1.24 1.2a4.854 4.854 0 0 1-.888.958c-.365.3-.811.543-1.338.732-.521.189-1.127.283-1.817.283Zm12.832-10.761h2.139v10.273c0 .95-.202 1.758-.605 2.422a3.893 3.893 0 0 1-1.69 1.514c-.723.351-1.559.527-2.51.527a5.89 5.89 0 0 1-1.347-.176 5.505 5.505 0 0 1-1.426-.566 3.534 3.534 0 0 1-1.143-1.006l1.104-1.387c.377.45.794.778 1.25.987.456.208.934.312 1.435.312.541 0 1-.1 1.377-.303.384-.195.681-.485.889-.869.208-.384.313-.853.313-1.406v-7.93l.214-2.392Zm-7.177 5.4v-.205c0-.8.097-1.53.293-2.188.195-.664.475-1.233.839-1.709a3.67 3.67 0 0 1 1.329-1.103c.52-.26 1.11-.39 1.767-.39.684 0 1.266.123 1.748.37.488.248.895.603 1.221 1.065.325.456.579 1.002.762 1.64.188.632.328 1.335.42 2.11v.654a10.58 10.58 0 0 1-.43 2.07 5.717 5.717 0 0 1-.801 1.621 3.418 3.418 0 0 1-1.23 1.055c-.482.248-1.052.371-1.709.371a3.773 3.773 0 0 1-1.748-.4 3.984 3.984 0 0 1-1.329-1.123 5.324 5.324 0 0 1-.839-1.7 7.458 7.458 0 0 1-.293-2.138Zm2.353-.205v.205c0 .482.046.931.137 1.348.098.416.244.784.439 1.103.202.313.456.56.762.742.313.176.68.264 1.104.264.553 0 1.005-.117 1.357-.351.358-.235.631-.55.82-.948.196-.403.332-.853.41-1.347v-1.768a4.3 4.3 0 0 0-.244-1.074 2.865 2.865 0 0 0-.478-.87 2 2 0 0 0-.762-.585c-.306-.144-.667-.215-1.084-.215-.423 0-.791.091-1.103.273a2.24 2.24 0 0 0-.772.752c-.195.32-.342.69-.439 1.114a6.005 6.005 0 0 0-.147 1.357Zm8.955.205v-.225c0-.761.111-1.468.332-2.119a5.058 5.058 0 0 1 .957-1.709 4.324 4.324 0 0 1 1.543-1.133c.612-.273 1.302-.41 2.071-.41.774 0 1.464.137 2.07.41a4.309 4.309 0 0 1 1.553 1.133c.423.482.745 1.052.966 1.71.222.65.332 1.357.332 2.118v.225c0 .762-.11 1.468-.332 2.12a5.065 5.065 0 0 1-.966 1.708 4.49 4.49 0 0 1-1.543 1.133c-.606.267-1.293.4-2.061.4-.775 0-1.468-.133-2.08-.4a4.481 4.481 0 0 1-1.543-1.133 5.085 5.085 0 0 1-.967-1.709 6.553 6.553 0 0 1-.332-2.119Zm2.354-.225v.225c0 .475.049.924.146 1.348.098.423.251.794.459 1.113.209.319.475.57.801.752.326.182.713.273 1.162.273.436 0 .814-.09 1.133-.273a2.28 2.28 0 0 0 .801-.752 3.44 3.44 0 0 0 .459-1.113 5.63 5.63 0 0 0 .156-1.348v-.225c0-.468-.052-.911-.156-1.328a3.416 3.416 0 0 0-.469-1.123 2.235 2.235 0 0 0-.801-.762c-.319-.188-.7-.283-1.142-.283-.443 0-.827.095-1.153.284a2.273 2.273 0 0 0-.791.761c-.208.326-.361.7-.459 1.123a5.85 5.85 0 0 0-.146 1.328Zm15.371 2.53a1.18 1.18 0 0 0-.176-.635c-.117-.195-.342-.371-.674-.527-.325-.157-.807-.3-1.445-.43a12.4 12.4 0 0 1-1.543-.44 4.897 4.897 0 0 1-1.191-.634 2.67 2.67 0 0 1-.772-.88 2.437 2.437 0 0 1-.273-1.171c0-.43.094-.837.283-1.22a3.1 3.1 0 0 1 .81-1.017 3.95 3.95 0 0 1 1.28-.693 5.347 5.347 0 0 1 1.699-.254c.885 0 1.644.15 2.275.45.638.293 1.127.693 1.465 1.2.339.502.508 1.068.508 1.7h-2.354c0-.28-.071-.54-.214-.781a1.498 1.498 0 0 0-.625-.596c-.28-.156-.632-.234-1.055-.234-.404 0-.739.065-1.006.195-.26.124-.456.286-.586.488a1.243 1.243 0 0 0-.185.664c0 .176.032.335.097.479.072.136.189.263.352.38.163.111.384.215.664.313.286.098.644.192 1.074.283.807.17 1.501.388 2.08.655.586.26 1.035.599 1.348 1.015.312.41.469.931.469 1.563 0 .468-.101.898-.303 1.289-.196.384-.482.72-.86 1.006-.377.28-.83.498-1.357.654a6.112 6.112 0 0 1-1.758.234c-.957 0-1.767-.169-2.431-.508-.665-.345-1.169-.784-1.514-1.318-.339-.54-.508-1.1-.508-1.68h2.275c.026.437.147.785.362 1.045.221.254.495.44.82.557.332.11.674.166 1.025.166.424 0 .778-.055 1.065-.166.286-.117.504-.273.654-.469.15-.202.225-.43.225-.683Zm4.463 1.69c0-.365.123-.671.371-.919.247-.254.583-.38 1.006-.38.429 0 .765.126 1.006.38.247.248.371.554.371.918 0 .365-.124.67-.371.918-.241.247-.577.371-1.006.371-.423 0-.759-.123-1.006-.37a1.245 1.245 0 0 1-.371-.919Zm16.982-13.048V39h-2.451l-6.377-10.186V39h-2.451V24.781h2.451l6.397 10.205V24.781h2.431Zm12.227 12.276V39h-7.549v-1.943h7.549Zm-6.856-12.276V39h-2.451V24.781h2.451Zm5.869 5.938v1.914h-6.562v-1.914h6.562Zm.938-5.938v1.953h-7.5v-1.953h7.5Zm8.096 0V39h-2.432V24.781h2.432Zm4.462 0v1.953h-11.318v-1.953h11.318Z"/>
  </g>
  <defs>
    <filter id="a" width="59" height="62" x="0" y="3" color-interpolation-filters="sRGB" filterUnits="userSpaceOnUse">
      <feFlood flood-opacity="0" result="BackgroundImageFix"/>
      <feColorMatrix in="SourceAlpha" result="hardAlpha" values="0 0 0 0 0 0 0 0 0 0 0 0 0 0 0 0 0 0 127 0"/>
      <feOffset dx="4" dy="4"/>
      <feGaussianBlur stdDeviation="2.5"/>
      <feComposite in2="hardAlpha" operator="out"/>
      <feColorMatrix values="0 0 0 0 0 0 0 0 0 0 0 0 0 0 0 0 0 0 0.25 0"/>
      <feBlend in2="BackgroundImageFix" result="effect1_dropShadow_108_239"/>
      <feBlend in="SourceGraphic" in2="effect1_dropShadow_108_239" result="shape"/>
    </filter>
    <filter id="c" width="150.527" height="28.857" x="63.244" y="23.41" color-interpolation-filters="sRGB" filterUnits="userSpaceOnUse">
      <feFlood flood-opacity="0" result="BackgroundImageFix"/>
      <feColorMatrix in="SourceAlpha" result="hardAlpha" values="0 0 0 0 0 0 0 0 0 0 0 0 0 0 0 0 0 0 127 0"/>
      <feOffset dx="4" dy="4"/>
      <feGaussianBlur stdDeviation="2.5"/>
      <feComposite in2="hardAlpha" operator="out"/>
      <feColorMatrix values="0 0 0 0 0 0 0 0 0 0 0 0 0 0 0 0 0 0 0.25 0"/>
      <feBlend in2="BackgroundImageFix" result="effect1_dropShadow_108_239"/>
      <feBlend in="SourceGraphic" in2="effect1_dropShadow_108_239" result="shape"/>
    </filter>
    <radialGradient id="b" cx="0" cy="0" r="1" gradientTransform="rotate(123.366 3.879 22.735) scale(24.5459)" gradientUnits="userSpaceOnUse">
      <stop offset="0" stop-color="#7950F2"/>
      <stop offset=".001" stop-color="#BE4BDB"/>
    </radialGradient>
    <linearGradient id="d" x1="134" x2="134" y1="6" y2="58" gradientUnits="userSpaceOnUse">
      <stop stop-color="#5F3DC4"/>
      <stop offset="1" stop-color="#BE4BDB"/>
    </linearGradient>
  </defs>
</svg>
