<svg xmlns="http://www.w3.org/2000/svg" width="48" height="48" fill="none" viewBox="0 0 48 48">
  <g clip-path="url(#a)">
    <path fill="url(#b)" d="M1.024 23.713a22.71 22.71 0 0 0 3.08 11.441L.832 47.014l12.231-3.183a23.203 23.203 0 0 0 11.025 2.785h.01c12.716 0 23.066-10.266 23.072-22.885.002-6.115-2.396-11.865-6.752-16.19C36.06 3.213 30.268.83 24.097.827 11.38.828 1.03 11.094 1.023 23.713"/>
    <path fill="url(#c)" d="M.2 23.705a23.524 23.524 0 0 0 3.19 11.852L0 47.841l12.67-3.296a24.035 24.035 0 0 0 11.42 2.886h.01c13.172 0 23.894-10.636 23.9-23.707.002-6.334-2.482-12.29-6.994-16.772C36.494 2.472 30.494.002 24.101 0 10.927 0 .206 10.634.2 23.705Zm7.546 11.233-.473-.745a19.54 19.54 0 0 1-3.037-10.486C4.24 12.843 13.15 4.004 24.108 4.004c5.306.002 10.293 2.054 14.044 5.778 3.75 3.725 5.814 8.675 5.813 13.94-.005 10.865-8.916 19.705-19.865 19.705h-.007a19.96 19.96 0 0 1-10.11-2.747l-.726-.427-7.519 1.956 2.008-7.271Z"/>
    <path fill="#fff" d="M18.127 13.795c-.447-.987-.918-1.007-1.343-1.024-.349-.015-.747-.014-1.145-.014s-1.045.149-1.592.742c-.548.593-2.09 2.026-2.09 4.941s2.14 5.733 2.438 6.128c.299.395 4.131 6.57 10.2 8.944 5.045 1.974 6.072 1.581 7.167 1.483 1.095-.1 3.533-1.433 4.03-2.817.498-1.383.498-2.57.349-2.817-.15-.247-.548-.395-1.145-.692-.597-.296-3.533-1.73-4.08-1.927-.548-.198-.946-.296-1.344.297-.398.592-1.542 1.927-1.89 2.322-.349.396-.697.445-1.294.149-.598-.297-2.521-.922-4.803-2.94-1.775-1.571-2.974-3.51-3.322-4.104-.348-.593-.037-.914.262-1.209.269-.265.598-.692.897-1.038.297-.346.397-.593.596-.988.199-.395.1-.741-.05-1.038-.15-.296-1.31-3.227-1.84-4.398Z"/>
  </g>
  <defs>
    <linearGradient id="b" x1="2317.7" x2="2317.7" y1="4619.34" y2=".828" gradientUnits="userSpaceOnUse">
      <stop stop-color="#1FAF38"/>
      <stop offset="1" stop-color="#60D669"/>
    </linearGradient>
    <linearGradient id="c" x1="2400" x2="2400" y1="4784.13" y2="0" gradientUnits="userSpaceOnUse">
      <stop stop-color="#F9F9F9"/>
      <stop offset="1" stop-color="#fff"/>
    </linearGradient>
    <clipPath id="a">
      <path fill="#fff" d="M0 0h48v48H0z"/>
    </clipPath>
  </defs>
</svg>
