<svg xmlns="http://www.w3.org/2000/svg" width="35" height="35" fill="none" viewBox="0 0 35 35">
  <g clip-path="url(#a)">
    <path fill="#5F3DC4" fill-rule="evenodd" d="M15.925 4.183a1.823 1.823 0 0 1 3.15 0l4.076 6.997 7.916 1.715a1.822 1.822 0 0 1 .973 2.995l-5.396 6.039.816 8.057a1.823 1.823 0 0 1-2.549 1.852L17.5 28.572l-7.411 3.266a1.823 1.823 0 0 1-2.55-1.852l.817-8.057-5.396-6.037a1.823 1.823 0 0 1 .973-2.997l7.916-1.715 4.076-6.997Zm1.575 3.09-3.373 5.792a1.823 1.823 0 0 1-1.19.864l-6.55 1.419 4.465 4.997c.34.382.505.89.454 1.399l-.675 6.669 6.134-2.704a1.824 1.824 0 0 1 1.47 0l6.134 2.704-.675-6.67a1.822 1.822 0 0 1 .453-1.398l4.467-4.997-6.55-1.42a1.822 1.822 0 0 1-1.19-.863L17.5 7.273Z" clip-rule="evenodd"/>
  </g>
  <defs>
    <clipPath id="a">
      <path fill="#fff" d="M0 0h35v35H0z"/>
    </clipPath>
  </defs>
</svg>
